<svg width="251" height="250" viewBox="0 0 251 250" fill="none" xmlns="http://www.w3.org/2000/svg">
<path d="M147.449 97.8395L127.864 116.064L109.69 79.4069L119.094 58.3265C121.474 54.1006 125.358 54.0925 127.738 58.3265L147.449 97.8395Z" fill="#FFA000"/>
<path d="M127.864 116.063L54.6758 184.148L109.69 79.4063L127.864 116.063Z" fill="#F57F17"/>
<path d="M168.87 69.9841C172.369 66.6211 175.986 67.7682 176.908 72.5332L195.958 183.236L132.807 221.084C130.597 222.304 124.745 222.834 124.745 222.834C124.745 222.834 119.403 222.195 117.367 221.065L54.6736 184.144L168.87 69.9841Z" fill="#FFCA28"/>
<path d="M109.691 79.4064L54.6763 184.148L79.1805 31.0652C80.0828 26.2964 82.7974 25.8372 85.2192 30.0464L109.691 79.4064Z" fill="#FFA000"/>
</svg>
