<svg width="251" height="250" viewBox="0 0 251 250" fill="none" xmlns="http://www.w3.org/2000/svg">
<path fill-rule="evenodd" clip-rule="evenodd" d="M125.686 54.7086C96.8439 54.7086 78.8223 70.33 71.6086 101.573C82.4249 85.9513 95.0426 80.0944 109.462 83.9975C117.688 86.2238 123.571 92.6904 130.077 99.8497C140.682 111.508 152.956 125 179.759 125C208.597 125 226.623 109.379 233.833 78.1406C223.021 93.762 210.403 99.6188 195.984 95.7112C187.753 93.4848 181.87 87.0183 175.364 79.8635C164.76 68.196 152.49 54.7086 125.686 54.7086ZM71.6086 125C42.7706 125 24.7448 140.621 17.5353 171.864C28.3516 156.243 40.9693 150.386 55.384 154.289C63.615 156.515 69.4979 162.982 76.0038 170.141C86.6082 181.799 98.8783 195.291 125.686 195.291C154.524 195.291 172.55 179.675 179.759 148.432C168.943 164.053 156.325 169.91 141.906 166.007C133.68 163.776 127.797 157.31 121.291 150.155C110.686 138.497 98.4121 125 71.6086 125Z" fill="#06B6D4"/>
</svg>
