<svg width="22" height="15" viewBox="0 0 22 15" fill="none" xmlns="http://www.w3.org/2000/svg">
<path d="M19.9588 0.107208C19.6077 0.107208 19.271 0.246689 19.0227 0.494965C18.7744 0.743241 18.6349 1.07998 18.6349 1.43109V6.72663C18.6349 7.07774 18.4955 7.41448 18.2472 7.66275C17.9989 7.91103 17.6622 8.05051 17.3111 8.05051H4.61502L6.33607 6.3427C6.58536 6.09341 6.72541 5.75529 6.72541 5.40274C6.72541 5.05019 6.58536 4.71208 6.33607 4.46279C6.08678 4.21349 5.74866 4.07344 5.39611 4.07344C5.04356 4.07344 4.70545 4.21349 4.45615 4.46279L0.484502 8.43444C0.363975 8.56034 0.269496 8.70881 0.206487 8.87132C0.0740747 9.19363 0.0740747 9.55515 0.206487 9.87747C0.269496 10.04 0.363975 10.1884 0.484502 10.3144L4.45615 14.286C4.57923 14.4101 4.72565 14.5086 4.88698 14.5758C5.0483 14.643 5.22134 14.6776 5.39611 14.6776C5.57088 14.6776 5.74392 14.643 5.90525 14.5758C6.06657 14.5086 6.213 14.4101 6.33607 14.286C6.46015 14.1629 6.55864 14.0165 6.62585 13.8552C6.69307 13.6939 6.72767 13.5208 6.72767 13.346C6.72767 13.1713 6.69307 12.9982 6.62585 12.8369C6.55864 12.6756 6.46015 12.5292 6.33607 12.4061L4.61502 10.6983H17.3111C18.3644 10.6983 19.3746 10.2798 20.1194 9.53501C20.8643 8.79018 21.2827 7.77997 21.2827 6.72663V1.43109C21.2827 1.07998 21.1432 0.743241 20.895 0.494965C20.6467 0.246689 20.3099 0.107208 19.9588 0.107208Z" fill="white"/>
</svg>
