<svg width="23" height="23" viewBox="0 0 23 23" fill="none" xmlns="http://www.w3.org/2000/svg">
<path d="M14.3215 7.59308L9.5956 12.33L7.77793 10.5124C7.67918 10.397 7.55765 10.3034 7.42098 10.2373C7.2843 10.1711 7.13544 10.134 6.98373 10.1281C6.83201 10.1223 6.68072 10.1478 6.53936 10.2032C6.39799 10.2586 6.2696 10.3426 6.16224 10.45C6.05489 10.5573 5.97088 10.6857 5.9155 10.8271C5.86011 10.9684 5.83455 11.1197 5.84041 11.2714C5.84627 11.4232 5.88343 11.572 5.94955 11.7087C6.01567 11.8454 6.10933 11.9669 6.22465 12.0657L8.81345 14.6655C8.91639 14.7676 9.03847 14.8483 9.17268 14.9032C9.3069 14.958 9.45062 14.9858 9.5956 14.9849C9.8846 14.9837 10.1615 14.869 10.3667 14.6655L15.8748 9.15738C15.9781 9.05497 16.06 8.93313 16.116 8.79889C16.1719 8.66465 16.2007 8.52066 16.2007 8.37523C16.2007 8.2298 16.1719 8.08582 16.116 7.95157C16.06 7.81733 15.9781 7.69549 15.8748 7.59308C15.6684 7.38791 15.3892 7.27274 15.0982 7.27274C14.8072 7.27274 14.5279 7.38791 14.3215 7.59308ZM11.3251 0.113098C9.14635 0.113098 7.01648 0.759186 5.20488 1.96966C3.39328 3.18013 1.98131 4.90062 1.14752 6.91357C0.313733 8.92651 0.095576 11.1415 0.520638 13.2784C0.945699 15.4154 1.99489 17.3782 3.53553 18.9189C5.07617 20.4595 7.03906 21.5087 9.17599 21.9338C11.3129 22.3588 13.5279 22.1407 15.5409 21.3069C17.5538 20.4731 19.2743 19.0611 20.4848 17.2495C21.6952 15.4379 22.3413 13.3081 22.3413 11.1293C22.3413 9.68261 22.0564 8.25011 21.5028 6.91357C20.9491 5.57702 20.1377 4.36261 19.1148 3.33966C18.0918 2.31672 16.8774 1.50527 15.5409 0.951655C14.2043 0.39804 12.7718 0.113098 11.3251 0.113098ZM11.3251 19.9422C9.58211 19.9422 7.87821 19.4253 6.42893 18.457C4.97965 17.4886 3.85008 16.1122 3.18305 14.5018C2.51602 12.8915 2.34149 11.1195 2.68154 9.40996C3.02159 7.70041 3.86094 6.1301 5.09345 4.89758C6.32596 3.66507 7.89628 2.82572 9.60582 2.48567C11.3154 2.14562 13.0874 2.32015 14.6977 2.98718C16.3081 3.65421 17.6845 4.78379 18.6528 6.23307C19.6212 7.68235 20.1381 9.38624 20.1381 11.1293C20.1381 13.4666 19.2096 15.7082 17.5568 17.361C15.9041 19.0137 13.6625 19.9422 11.3251 19.9422Z" fill="url(#paint0_linear)"/>
<defs>
<linearGradient id="paint0_linear" x1="0.135266" y1="0.113099" x2="26.6453" y2="8.43544" gradientUnits="userSpaceOnUse">
<stop stop-color="#6D28D9"/>
<stop offset="1" stop-color="#818CF8"/>
</linearGradient>
</defs>
</svg>
