<svg width="24" height="24" viewBox="0 0 24 24" fill="none" xmlns="http://www.w3.org/2000/svg">
<path d="M9.87999 14.12L9.72999 14L9.54999 13.9L9.36999 13.85C9.20933 13.8178 9.04324 13.8256 8.8863 13.8727C8.72937 13.9198 8.58641 14.0047 8.46999 14.12C8.37107 14.2106 8.29558 14.3238 8.24999 14.45C8.19708 14.5697 8.16976 14.6991 8.16976 14.83C8.16976 14.9609 8.19708 15.0903 8.24999 15.21C8.35744 15.4503 8.54969 15.6426 8.78999 15.75C8.91021 15.8012 9.03931 15.8284 9.16999 15.83C9.3038 15.8275 9.436 15.8004 9.55999 15.75C9.68187 15.7017 9.79126 15.6265 9.87999 15.53C9.97353 15.4387 10.0483 15.33 10.1 15.21C10.1478 15.0891 10.1716 14.96 10.17 14.83C10.1734 14.6988 10.146 14.5687 10.09 14.45C10.0442 14.3264 9.97259 14.2139 9.87999 14.12V14.12ZM3.50999 8.76C3.6423 8.75945 3.77318 8.73266 3.89505 8.68116C4.01693 8.62966 4.12737 8.55449 4.21999 8.46L8.45999 4.22C8.64624 4.03264 8.75078 3.77919 8.75078 3.515C8.75078 3.25082 8.64624 2.99737 8.45999 2.81C8.27263 2.62375 8.01917 2.51921 7.75499 2.51921C7.4908 2.51921 7.23735 2.62375 7.04999 2.81L2.80999 7.05C2.62374 7.23737 2.5192 7.49082 2.5192 7.755C2.5192 8.01919 2.62374 8.27264 2.80999 8.46C2.99462 8.64842 3.24622 8.75625 3.50999 8.76V8.76ZM21.19 15.54C21.0026 15.3538 20.7492 15.2492 20.485 15.2492C20.2208 15.2492 19.9674 15.3538 19.78 15.54L15.54 19.78C15.3996 19.9193 15.3036 20.0971 15.2642 20.2909C15.2248 20.4847 15.2438 20.6858 15.3187 20.8689C15.3936 21.0519 15.5212 21.2086 15.6851 21.3192C15.8491 21.4297 16.0422 21.4892 16.24 21.49C16.3723 21.4895 16.5032 21.4627 16.6251 21.4112C16.7469 21.3597 16.8574 21.2845 16.95 21.19L21.19 17C21.2899 16.9065 21.3695 16.7934 21.424 16.6678C21.4784 16.5423 21.5065 16.4069 21.5065 16.27C21.5065 16.1331 21.4784 15.9977 21.424 15.8722C21.3695 15.7466 21.2899 15.6335 21.19 15.54V15.54ZM21.36 9.88C21.3619 9.08606 21.0491 8.32371 20.49 7.76L16.24 3.51C15.6677 2.967 14.9089 2.66428 14.12 2.66428C13.3311 2.66428 12.5723 2.967 12 3.51L3.50999 12C2.94819 12.5625 2.63263 13.325 2.63263 14.12C2.63263 14.915 2.94819 15.6775 3.50999 16.24L7.75999 20.49C8.32249 21.0518 9.08499 21.3674 9.87999 21.3674C10.675 21.3674 11.4375 21.0518 12 20.49L20.49 12C21.0491 11.4363 21.3619 10.674 21.36 9.88V9.88ZM19.07 10.59L10.59 19.07C10.497 19.1637 10.3864 19.2381 10.2646 19.2889C10.1427 19.3397 10.012 19.3658 9.87999 19.3658C9.74798 19.3658 9.61727 19.3397 9.49541 19.2889C9.37355 19.2381 9.26295 19.1637 9.16999 19.07L4.92999 14.83C4.83626 14.737 4.76187 14.6264 4.7111 14.5046C4.66033 14.3827 4.63419 14.252 4.63419 14.12C4.63419 13.988 4.66033 13.8573 4.7111 13.7354C4.76187 13.6136 4.83626 13.503 4.92999 13.41L13.41 4.93C13.503 4.83627 13.6136 4.76188 13.7354 4.71111C13.8573 4.66034 13.988 4.63421 14.12 4.63421C14.252 4.63421 14.3827 4.66034 14.5046 4.71111C14.6264 4.76188 14.737 4.83627 14.83 4.93L19.07 9.17C19.1637 9.26297 19.2381 9.37357 19.2889 9.49543C19.3396 9.61729 19.3658 9.74799 19.3658 9.88C19.3658 10.012 19.3396 10.1427 19.2889 10.2646C19.2381 10.3864 19.1637 10.497 19.07 10.59Z" fill="white"/>
</svg>
